<?xml version="1.0" encoding="utf-8"?>
<!-- Generator: Adobe Illustrator 16.0.0, SVG Export Plug-In . SVG Version: 6.00 Build 0)  -->
<!DOCTYPE svg PUBLIC "-//W3C//DTD SVG 1.1//EN" "http://www.w3.org/Graphics/SVG/1.1/DTD/svg11.dtd">
<svg version="1.1" id="Layer_1" xmlns="http://www.w3.org/2000/svg" xmlns:xlink="http://www.w3.org/1999/xlink" x="0px" y="0px"
	 width="180px" height="180px" viewBox="0 0 180 180" enable-background="new 0 0 180 180" xml:space="preserve">
<g opacity="0.9">
	<g>
		<g>
			<circle fill="#1D4189" cx="90.283" cy="90.077" r="89.077"/>
		</g>
	</g>
	<g>
		<path fill="#FFFFFF" d="M102.159,97.301c5.134-3.41,8.529-9.238,8.529-15.85c0-10.488-8.531-19.019-19.019-19.019
			c-10.488,0-19.02,8.531-19.02,19.019c0,6.612,3.395,12.44,8.529,15.85c-11.618,4.287-19.941,15.439-19.941,28.527h5.072
			c0-13.982,11.375-25.358,25.359-25.358c13.982,0,25.358,11.376,25.358,25.358h5.071C122.1,112.74,113.777,101.588,102.159,97.301z
			 M77.723,81.451c0-7.691,6.256-13.947,13.947-13.947c7.689,0,13.947,6.256,13.947,13.947c0,7.69-6.258,13.948-13.947,13.948
			C83.979,95.398,77.723,89.141,77.723,81.451z"/>
		<path fill="#F98D29" d="M127.518,84.621c5.135-3.41,8.529-9.238,8.529-15.85c0-10.487-8.531-19.019-19.019-19.019
			c-5.081,0-9.691,2.014-13.106,5.271c-1.265,1.206-2.357,2.584-3.254,4.097c1.582,0.64,3.088,1.43,4.483,2.375
			c0.897-1.459,2.05-2.738,3.403-3.778c2.353-1.807,5.285-2.895,8.474-2.895c7.69,0,13.947,6.257,13.947,13.947
			c0,6.384-4.317,11.767-10.181,13.417c-1.2,0.337-2.46,0.531-3.767,0.531c-0.449,0-0.892-0.026-1.329-0.067
			c-0.091,1.825-0.377,3.597-0.854,5.294c0.725-0.063,1.441-0.155,2.183-0.155c1.029,0,2.039,0.08,3.037,0.2
			c12.554,1.508,22.321,12.205,22.321,25.158h5.072C147.459,100.061,139.136,88.908,127.518,84.621z"/>
		<path fill="#F98D29" d="M66.311,87.791c0.741,0,1.457,0.093,2.183,0.155c-0.477-1.697-0.763-3.469-0.854-5.294
			c-0.438,0.042-0.879,0.067-1.328,0.067c-1.307,0-2.566-0.194-3.767-0.531c-5.864-1.649-10.181-7.032-10.181-13.417
			c0-7.69,6.257-13.947,13.947-13.947c3.188,0,6.121,1.087,8.473,2.895c1.354,1.04,2.508,2.319,3.404,3.778
			c1.396-0.946,2.9-1.736,4.482-2.375c-0.895-1.513-1.988-2.891-3.253-4.097c-3.415-3.257-8.026-5.271-13.106-5.271
			c-10.488,0-19.02,8.531-19.02,19.019c0,6.612,3.396,12.44,8.529,15.85c-11.617,4.287-19.94,15.439-19.94,28.527h5.071
			c0-12.953,9.768-23.65,22.322-25.158C64.271,87.87,65.281,87.791,66.311,87.791z"/>
	</g>
</g>
</svg>
