<?xml version="1.0" encoding="utf-8"?>
<!-- Generator: Adobe Illustrator 16.0.0, SVG Export Plug-In . SVG Version: 6.00 Build 0)  -->
<!DOCTYPE svg PUBLIC "-//W3C//DTD SVG 1.1//EN" "http://www.w3.org/Graphics/SVG/1.1/DTD/svg11.dtd">
<svg version="1.1" id="Layer_1" xmlns="http://www.w3.org/2000/svg" xmlns:xlink="http://www.w3.org/1999/xlink" x="0px" y="0px"
	 width="180px" height="180px" viewBox="0 0 180 180" enable-background="new 0 0 180 180" xml:space="preserve">
<g opacity="0.9">
	<g>
		<g>
			<circle fill="#1D4189" cx="90.283" cy="90.077" r="89.077"/>
		</g>
	</g>
	<g>
		<g>
			<defs>
				<rect id="SVGID_3_" x="46.468" y="37" width="79.065" height="115.75"/>
			</defs>
			<clipPath id="SVGID_2_">
				<use xlink:href="#SVGID_3_"  overflow="visible"/>
			</clipPath>
			<path clip-path="url(#SVGID_2_)" fill="#FFFFFF" d="M126.498,65.624V46.495h-4.73L99.821,37l-1.217,2.853l15.372,6.643H94.952
				v3.548c-12.486,0.243-30.09,1.461-34.398,14.295c-3.408,10.19,8.413,20.729,14.469,27.163
				c8.065,8.452,20.277,18.156,23.025,30.12c3.479,15.13-37.985,16.625-45.394,17.287c-4.869,0.416-9.348,10.538-3.195,9.981
				c17.187-1.53,44.38-2.539,55.197-18.816c6.99-10.47,0.174-21.772-6.713-30.189C89.7,89.797,78.983,81.415,71.862,70.459
				c-1.917-2.991-3.065-5.809-1.783-6.539c6.856-4.104,16.908-3.86,24.873-3.965v5.704h31.546V65.624z M126.498,65.624"/>
		</g>
	</g>
	<g>
		<polygon fill="#F98D29" points="94,50 94,46 113,46 98.126,39.583 99.521,36.536 121.906,46 126,46 126,66 94,66 		"/>
	</g>
</g>
</svg>
