<?xml version="1.0" encoding="utf-8"?>
<!-- Generator: Adobe Illustrator 16.0.0, SVG Export Plug-In . SVG Version: 6.00 Build 0)  -->
<!DOCTYPE svg PUBLIC "-//W3C//DTD SVG 1.1//EN" "http://www.w3.org/Graphics/SVG/1.1/DTD/svg11.dtd">
<svg version="1.1" id="Layer_1" xmlns="http://www.w3.org/2000/svg" xmlns:xlink="http://www.w3.org/1999/xlink" x="0px" y="0px"
	 width="180px" height="180px" viewBox="0 0 180 180" enable-background="new 0 0 180 180" xml:space="preserve">
<g opacity="0.9">
	<g>
		<g>
			<g>
				<circle fill="#1D4189" cx="90.283" cy="90.077" r="89.077"/>
			</g>
		</g>
	</g>
	<g>
		<path fill="#FFFFFF" d="M100.51,136.153l19.451-12.056V83.121l7.801-4.843V35.616L100.51,51.969V136.153z M100.51,136.153"/>
		<rect x="81.901" y="125.659" fill="#FFFFFF" width="6.462" height="3.38"/>
		<rect x="63.747" y="125.659" fill="#FFFFFF" width="6.462" height="3.38"/>
		<path fill="#FFFFFF" d="M55.575,136.153h41.521V52.391H55.575V136.153z M91.751,132.427H78.522v-10.155h13.229V132.427z
			 M62.202,61.909h28.276v54.569H62.202V61.909z M60.368,122.271h13.229v10.155H60.368V122.271z M60.368,122.271"/>
		<path fill="#FFFFFF" d="M83.728,35.542L56.642,49.366h41.529l23.658-13.824H83.728z M83.728,35.542"/>
		<path fill="#F98D29" d="M84.272,85.194L84.272,85.194c-0.215-0.322-0.438-0.636-0.677-0.925
			c-5.892-8.338-7.784-15.617-7.784-15.617s-1.893,7.279-7.783,15.617c-0.24,0.297-0.463,0.603-0.67,0.925
			c-1.313,2.025-2.091,4.521-2.091,7.23c0,6.685,4.719,12.105,10.544,12.105s10.544-5.421,10.544-12.105
			C86.363,89.715,85.587,87.22,84.272,85.194L84.272,85.194z M83.257,96.474c-0.587,1.711-3.313,0.976-2.719-0.743
			c1.091-3.189,0.719-6.156-1.521-8.742c-1.182-1.372,0.802-3.38,2-2C83.893,88.318,84.694,92.301,83.257,96.474L83.257,96.474z
			 M83.257,96.474"/>
	</g>
</g>
</svg>
