<?xml version="1.0" encoding="utf-8"?>
<!-- Generator: Adobe Illustrator 16.0.0, SVG Export Plug-In . SVG Version: 6.00 Build 0)  -->
<!DOCTYPE svg PUBLIC "-//W3C//DTD SVG 1.1//EN" "http://www.w3.org/Graphics/SVG/1.1/DTD/svg11.dtd">
<svg version="1.1" id="Layer_1" xmlns="http://www.w3.org/2000/svg" xmlns:xlink="http://www.w3.org/1999/xlink" x="0px" y="0px"
	 width="180px" height="180px" viewBox="0 0 180 180" enable-background="new 0 0 180 180" xml:space="preserve">
<g opacity="0.9">
	<g>
		<g>
			<circle fill="#1D4189" cx="90.283" cy="90.077" r="89.077"/>
		</g>
	</g>
	<g>
		<path fill-rule="evenodd" clip-rule="evenodd" fill="#FFFFFF" d="M129.518,144.26H51.049c-1.205,0-2.182-0.977-2.182-2.182v-4.183
			c0-1.205,0.977-2.181,2.182-2.181h78.469c1.204,0,2.182,0.976,2.182,2.181v4.183C131.699,143.283,130.722,144.26,129.518,144.26z"
			/>
		<path fill-rule="evenodd" clip-rule="evenodd" fill="#FFFFFF" d="M129.518,142.351H51.049c-1.205,0-2.182-0.978-2.182-2.182
			V48.723c0-1.206,0.977-2.183,2.182-2.183h78.469c1.204,0,2.182,0.977,2.182,2.183v91.446
			C131.699,141.373,130.722,142.351,129.518,142.351z"/>
		<g>
			<path fill-rule="evenodd" clip-rule="evenodd" fill="#FFFFFF" d="M123.093,138.976H57.474c-0.979,0-1.773-0.794-1.773-1.773
				v-4.304c0-0.979,0.794-1.773,1.773-1.773h65.619c0.979,0,1.774,0.795,1.774,1.773v4.304
				C124.867,138.182,124.072,138.976,123.093,138.976z"/>
			<path fill-rule="evenodd" clip-rule="evenodd" fill="#FFFFFF" d="M123.093,137.561H57.474c-0.979,0-1.773-0.794-1.773-1.773
				V53.863c0-0.98,0.794-1.774,1.773-1.774h65.619c0.979,0,1.774,0.794,1.774,1.774v81.924
				C124.867,136.767,124.072,137.561,123.093,137.561z"/>
			<g>
				<g>
					<g>
						<circle fill-rule="evenodd" clip-rule="evenodd" fill="#F98D29" cx="67.968" cy="70.483" r="5.243"/>
						<path fill="#F98D29" d="M69.899,68.887l-2.306,2.305l-1.347-1.348c-0.109-0.11-0.291-0.11-0.4,0l-0.502,0.502
							c-0.11,0.11-0.11,0.291,0,0.401l1.548,1.546l0.502,0.502c0.109,0.11,0.289,0.11,0.4,0l0.501-0.502l2.505-2.505
							c0.11-0.11,0.11-0.291,0-0.401l-0.501-0.5C70.189,68.775,70.01,68.775,69.899,68.887z"/>
					</g>
					<rect x="79.589" y="68.445" fill="#F98D29" width="38.251" height="4.074"/>
				</g>
				<g>
					<g>
						<circle fill-rule="evenodd" clip-rule="evenodd" fill="#F98D29" cx="67.968" cy="88.233" r="5.243"/>
						<path fill="#F98D29" d="M69.899,86.637l-2.306,2.305l-1.347-1.348c-0.109-0.11-0.291-0.11-0.4,0l-0.502,0.501
							c-0.11,0.11-0.11,0.291,0,0.401l1.548,1.547l0.502,0.502c0.109,0.109,0.289,0.109,0.4,0l0.501-0.502l2.505-2.505
							c0.11-0.111,0.11-0.29,0-0.4L70.3,86.637C70.189,86.525,70.01,86.525,69.899,86.637z"/>
					</g>
					<rect x="79.589" y="86.196" fill="#F98D29" width="38.251" height="4.074"/>
				</g>
				<g>
					<g>
						<circle fill-rule="evenodd" clip-rule="evenodd" fill="#F98D29" cx="67.968" cy="105.982" r="5.243"/>
						<path fill="#F98D29" d="M69.899,104.385l-2.306,2.306l-1.347-1.347c-0.109-0.109-0.291-0.109-0.4,0l-0.502,0.502
							c-0.11,0.109-0.11,0.29,0,0.399l1.548,1.548l0.502,0.502c0.109,0.109,0.289,0.109,0.399,0l0.502-0.502l2.505-2.505
							c0.11-0.111,0.11-0.291,0-0.401l-0.501-0.502C70.189,104.275,70.01,104.275,69.899,104.385z"/>
					</g>
					<rect x="79.589" y="103.945" fill="#F98D29" width="38.251" height="4.074"/>
				</g>
				<g>
					<g>
						<circle fill-rule="evenodd" clip-rule="evenodd" fill="#F98D29" cx="67.968" cy="123.731" r="5.243"/>
						<path fill="#F98D29" d="M69.899,122.135l-2.306,2.306l-1.347-1.348c-0.109-0.109-0.291-0.109-0.4,0l-0.502,0.502
							c-0.11,0.109-0.11,0.29,0,0.4l1.548,1.548l0.502,0.502c0.109,0.109,0.289,0.109,0.399,0l0.502-0.502l2.505-2.506
							c0.11-0.109,0.11-0.29,0-0.4l-0.501-0.502C70.189,122.025,70.01,122.025,69.899,122.135z"/>
					</g>
					<rect x="79.589" y="121.695" fill="#F98D29" width="38.251" height="4.074"/>
				</g>
			</g>
		</g>
		<g>
			<path fill-rule="evenodd" clip-rule="evenodd" fill="#FFFFFF" d="M112.645,52.274H67.922v-6.54c0-0.563,0.454-1.018,1.017-1.018
				h42.689c0.562,0,1.017,0.455,1.017,1.018V52.274z"/>
			<rect x="67.922" y="52.275" fill-rule="evenodd" clip-rule="evenodd" fill="#FFFFFF" width="44.723" height="2.904"/>
			<g>
				<circle fill-rule="evenodd" clip-rule="evenodd" fill="#FFFFFF" cx="90.283" cy="44.321" r="6.485"/>
				<circle fill-rule="evenodd" clip-rule="evenodd" fill="#F98D29" cx="90.284" cy="44.321" r="3.557"/>
			</g>
		</g>
	</g>
</g>
</svg>
