<?xml version="1.0" encoding="utf-8"?>
<!-- Generator: Adobe Illustrator 16.0.0, SVG Export Plug-In . SVG Version: 6.00 Build 0)  -->
<!DOCTYPE svg PUBLIC "-//W3C//DTD SVG 1.1//EN" "http://www.w3.org/Graphics/SVG/1.1/DTD/svg11.dtd">
<svg version="1.1" id="Layer_1" xmlns="http://www.w3.org/2000/svg" xmlns:xlink="http://www.w3.org/1999/xlink" x="0px" y="0px"
	 width="180px" height="180px" viewBox="0 0 180 180" enable-background="new 0 0 180 180" xml:space="preserve">
<g opacity="0.9">
	<g>
		<g>
			<g>
				<circle fill="#1D4189" cx="90.283" cy="90.077" r="89.077"/>
			</g>
		</g>
	</g>
	<g>
		<g>
			<path fill="#FFFFFF" d="M85.156,139.947c-3.772-0.25-8.015-0.94-12.729-2.073c-4.713-1.131-8.894-2.387-12.538-3.77l2.264-6.79
				l5.277,1.322c2.136,0.629,4.902,1.351,8.296,2.166c3.394,0.821,6.534,1.228,9.43,1.228V90.737
				c-3.146-0.501-6.223-1.319-9.24-2.449c-3.018-1.133-5.689-2.734-8.012-4.809c-2.33-2.074-4.215-4.621-5.657-7.636
				c-1.447-3.018-2.168-6.662-2.168-10.938c0-6.787,2.135-12.566,6.411-17.344c4.271-4.777,10.181-7.92,17.722-9.429
				c0.251-0.123,0.346-0.189,0.284-0.189c-0.066,0,0.156,0,0.66,0v-11.5h8.296v10.559H97.6c1.509,0,3.235,0.159,5.184,0.471
				c1.948,0.314,3.961,0.725,6.035,1.226c2.074,0.503,4.082,1.068,6.033,1.698c1.945,0.629,3.677,1.258,5.184,1.885l-2.074,7.541
				c-4.777-1.885-8.925-3.171-12.444-3.864c-3.519-0.69-7.29-1.038-11.311-1.038h-0.754v38.653c3.122,0.253,6.149,0.752,9.083,1.507
				c2.936,0.754,5.964,2.201,9.086,4.337c3.499,2.517,6.215,5.721,8.15,9.615c1.936,3.897,2.905,7.92,2.905,12.068
				c0,4.272-0.752,8.078-2.248,11.405c-1.501,3.332-3.563,6.222-6.184,8.674c-2.624,2.45-5.716,4.401-9.275,5.844
				c-3.56,1.447-7.4,2.357-11.518,2.736v13.95h-8.296V139.947z M74.973,79.048c1.634,1.258,3.302,2.139,4.997,2.64
				c1.698,0.503,3.424,0.882,5.187,1.133V45.864c-4.78,1.131-8.864,3.332-12.258,6.598c-3.394,3.271-5.089,7.984-5.089,14.143
				c0,2.263,0.66,4.557,1.979,6.881C71.108,75.813,72.835,77.667,74.973,79.048z M111.767,100.353
				c-2.493-3.644-5.293-5.999-8.41-7.068c-3.118-1.066-6.417-1.729-9.904-1.981v40.728c2.861-0.125,5.605-0.724,8.222-1.793
				c2.615-1.066,4.889-2.544,6.822-4.429c1.934-1.888,3.488-4.118,4.673-6.695c1.184-2.575,1.776-5.563,1.776-8.956
				c0-1.631-0.345-3.359-1.027-5.184C113.229,103.153,112.514,101.611,111.767,100.353z"/>
		</g>
		<rect x="85" y="26" fill="#F98D29" width="9" height="128"/>
	</g>
</g>
</svg>
