<?xml version="1.0" encoding="utf-8"?>
<!-- Generator: Adobe Illustrator 16.0.0, SVG Export Plug-In . SVG Version: 6.00 Build 0)  -->
<!DOCTYPE svg PUBLIC "-//W3C//DTD SVG 1.1//EN" "http://www.w3.org/Graphics/SVG/1.1/DTD/svg11.dtd">
<svg version="1.1" id="Layer_1" xmlns="http://www.w3.org/2000/svg" xmlns:xlink="http://www.w3.org/1999/xlink" x="0px" y="0px"
	 width="180px" height="180px" viewBox="0 0 180 180" enable-background="new 0 0 180 180" xml:space="preserve">
<g opacity="0.9">
	<g>
		<circle fill="#1D4189" cx="90.283" cy="90.077" r="89.077"/>
	</g>
	<g>
		<g>
			<path fill="#FFFFFF" d="M78.786,122.621l-0.383-4.993c-1.15-10.376,2.309-21.722,11.918-33.257
				c8.646-10.188,13.451-17.684,13.451-26.321c0-9.813-6.149-16.34-18.256-16.527c-6.917,0-14.608,2.301-19.414,5.946l-4.608-12.096
				c6.338-4.617,17.292-7.7,27.481-7.7c22.106,0,32.097,13.646,32.097,28.264c0,13.067-7.301,22.488-16.526,33.443
				c-8.458,9.984-11.533,18.451-10.955,28.248l0.188,4.993H78.786z"/>
		</g>
		<path fill="#F98D29" d="M97.083,143.256c0,5.972-3.23,10.177-10.242,10.177c-7.105,0-10.242-4.411-10.242-10.385
			c0-5.973,3.414-10.813,10.261-10.813C93.622,132.234,97.083,137.072,97.083,143.256z"/>
	</g>
</g>
</svg>
