<?xml version="1.0" encoding="utf-8"?>
<!-- Generator: Adobe Illustrator 16.0.0, SVG Export Plug-In . SVG Version: 6.00 Build 0)  -->
<!DOCTYPE svg PUBLIC "-//W3C//DTD SVG 1.1//EN" "http://www.w3.org/Graphics/SVG/1.1/DTD/svg11.dtd">
<svg version="1.1" id="Layer_1" xmlns="http://www.w3.org/2000/svg" xmlns:xlink="http://www.w3.org/1999/xlink" x="0px" y="0px"
	 width="180px" height="180px" viewBox="0 0 180 180" enable-background="new 0 0 180 180" xml:space="preserve">
<g opacity="0.9">
	<g>
		<circle fill="#1D4189" cx="90.283" cy="90.077" r="89.077"/>
	</g>
	<g>
		
			<polygon fill="none" stroke="#FFFFFF" stroke-width="3" stroke-linecap="round" stroke-linejoin="round" stroke-miterlimit="10" points="
			102.974,66.215 124.599,66.215 102.974,44.59 		"/>
		
			<polygon fill="none" stroke="#FFFFFF" stroke-width="3" stroke-linecap="round" stroke-linejoin="round" stroke-miterlimit="10" points="
			102.974,44.59 55.402,44.59 55.402,135.41 124.599,135.41 124.599,66.215 		"/>
	</g>
	<g>
		<path fill="#F98D29" d="M80.467,92.252h-5.503V77.186l0.053-2.477l0.09-2.706c-0.915,0.915-1.549,1.514-1.905,1.8l-2.992,2.403
			l-2.654-3.313l8.389-6.679h4.523V92.252z"/>
	</g>
	<path fill="#F2F2F2" d="M68.412,118.238h44.166c1.594,0,2.823-1.232,2.823-2.826s-1.229-2.877-2.823-2.877H68.412
		c-1.589,0-2.825,1.283-2.825,2.877S66.823,118.238,68.412,118.238L68.412,118.238z M68.412,118.238"/>
	<path fill="#F2F2F2" d="M65.587,102.676c0,1.594,1.236,2.824,2.825,2.824h44.166c1.594,0,2.823-1.23,2.823-2.824
		c0-1.589-1.229-2.873-2.823-2.873H68.412C66.823,99.803,65.587,101.087,65.587,102.676L65.587,102.676z M65.587,102.676"/>
	<path fill="#F2F2F2" d="M92.089,92.87h20.489c1.594,0,2.823-1.236,2.823-2.825c0-1.594-1.229-2.823-2.823-2.823H92.089
		c-1.595,0-2.879,1.229-2.879,2.823C89.21,91.634,90.494,92.87,92.089,92.87L92.089,92.87z M92.089,92.87"/>
	<path fill="#F2F2F2" d="M92.089,80.132h20.489c1.594,0,2.823-1.235,2.823-2.823c0-1.595-1.229-2.825-2.823-2.825H92.089
		c-1.595,0-2.879,1.23-2.879,2.825C89.21,78.896,90.494,80.132,92.089,80.132L92.089,80.132z M92.089,80.132"/>
</g>
</svg>
