<?xml version="1.0" encoding="utf-8"?>
<!-- Generator: Adobe Illustrator 16.0.0, SVG Export Plug-In . SVG Version: 6.00 Build 0)  -->
<!DOCTYPE svg PUBLIC "-//W3C//DTD SVG 1.1//EN" "http://www.w3.org/Graphics/SVG/1.1/DTD/svg11.dtd">
<svg version="1.1" id="Layer_1" xmlns="http://www.w3.org/2000/svg" xmlns:xlink="http://www.w3.org/1999/xlink" x="0px" y="0px"
	 width="180px" height="180px" viewBox="0 0 180 180" enable-background="new 0 0 180 180" xml:space="preserve">
<g opacity="0.9">
	<g>
		<g>
			<circle fill="#1D4189" cx="90.283" cy="90.077" r="89.077"/>
		</g>
	</g>
	<path fill-rule="evenodd" clip-rule="evenodd" fill="#FFFFFF" d="M111.378,71.745L111.378,71.745
		c10.167-3.219,21.016,2.374,24.234,12.369c3.39,10.169-2.202,21.01-12.37,24.402c-10.168,3.219-21.014-2.369-24.234-12.54
		C95.79,85.976,101.382,74.968,111.378,71.745L111.378,71.745z M91.891,72.93c1.185,1.189,1.017,4.407,0.681,5.422
		c-0.508,1.017-2.206,1.355-3.899,1.017c-1.695-0.338-3.559,1.184-4.066,3.731c-0.509,2.202,0.34,4.405,2.033,4.914
		c1.865,0.34,3.219,3.386,3.219,4.403c0.168,0.853-1.015,2.205-2.71,2.713c-1.864,0.678-2.542,3.05-1.864,5.255
		c0.847,2.369,2.881,3.725,4.574,3.217c1.527-0.509,3.388-0.339,3.898,0.678c0.509,0.677,1.188,3.899-0.168,5.254
		c-1.017,1.354-0.513,3.729,1.186,5.422c1.86,1.523,4.405,1.861,5.423,0.509c1.186-1.185,4.404-1.015,5.421-0.509
		c1.021,0.341,1.356,2.031,1.021,3.731c-0.34,1.861,1.184,3.725,3.727,4.23c2.202,0.509,4.403-0.506,4.912-2.198
		c0.338-1.693,3.389-3.222,4.407-3.222c0.847-0.17,2.202,1.189,2.71,2.713c0.682,1.695,3.053,2.54,5.252,1.695
		c2.374-0.679,3.729-2.541,3.221-4.24c-0.506-1.692,1.358-4.402,2.204-5.079c0.676-0.508,2.542,0,3.729,1.015
		c1.355,1.354,3.728,0.849,5.422-1.015c1.523-1.868,1.863-4.237,0.508-5.424c-1.188-1.191-1.021-4.408-0.508-5.424
		c0.34-0.846,2.033-1.354,3.729-1.016c1.863,0.509,3.727-1.185,4.234-3.561c0.512-2.37-0.508-4.745-2.202-5.086
		c-1.693-0.338-3.049-3.215-3.219-4.232c-0.168-1.184,1.187-2.204,2.71-2.883c1.865-0.51,2.542-2.878,1.865-5.086
		c-0.847-2.37-2.714-3.725-4.405-3.214c-1.695,0.336-4.406-1.355-5.085-2.202c-0.507-0.853,0-2.546,1.187-3.901
		c1.187-1.353,0.674-3.73-1.187-5.422c-1.693-1.524-4.235-1.863-5.423-0.509c-1.185,1.186-4.405,1.018-5.254,0.679
		c-1.017-0.508-1.525-2.201-1.185-3.9c0.508-1.693-1.185-3.555-3.559-4.231c-2.375-0.338-4.576,0.507-5.082,2.368
		c-0.338,1.701-3.223,3.054-4.239,3.222c-1.015,0-2.2-1.183-2.881-3.052c-0.508-1.522-2.882-2.37-5.082-1.522
		c-2.373,0.676-3.9,2.539-3.22,4.406c0.34,1.693-1.356,4.231-2.374,4.916c-0.676,0.503-2.371,0.164-3.727-1.193
		c-1.357-1.013-3.727-0.506-5.422,1.193C90.874,69.373,90.535,71.913,91.891,72.93L91.891,72.93z"/>
	<path fill-rule="evenodd" clip-rule="evenodd" fill="#FFFFFF" d="M58.169,101.399L58.169,101.399
		c7.456-2.544,15.252,1.693,17.794,8.98c2.202,7.456-1.865,15.424-9.151,17.794c-7.458,2.369-15.42-1.694-17.793-9.148
		C46.645,111.735,50.716,103.773,58.169,101.399L58.169,101.399z M43.767,102.248L43.767,102.248
		c1.017,0.845,0.849,3.223,0.508,3.899c-0.336,0.676-1.525,1.015-2.88,0.847c-1.188-0.341-2.542,0.846-2.881,2.539
		c-0.508,1.692,0.339,3.391,1.521,3.729c1.359,0.338,2.374,2.371,2.374,3.216c0,0.679-0.845,1.525-2.033,2.033
		c-1.185,0.343-1.862,2.036-1.354,3.731c0.675,1.861,2.033,2.884,3.219,2.376c1.187-0.347,2.542-0.178,3.05,0.508
		c0.339,0.677,0.678,2.877-0.169,3.894c-0.848,1.015-0.507,2.714,0.847,4.068c1.356,1.015,3.05,1.184,4.068,0.339
		c0.847-1.018,3.221-0.847,3.896-0.507c0.677,0.339,1.018,1.521,0.677,2.877c-0.168,1.187,0.849,2.543,2.715,3.054
		c1.69,0.339,3.386-0.34,3.559-1.692c0.336-1.191,2.54-2.377,3.218-2.377c0.845,0,1.693,0.847,2.034,2.202
		c0.508,1.188,2.203,1.699,3.727,1.188c1.693-0.512,2.882-2.037,2.542-3.224c-0.509-1.184,0.848-3.215,1.525-3.724
		c0.508-0.338,1.864,0,2.71,0.847c1.017,0.849,2.881,0.509,3.898-0.847c1.357-1.19,1.525-3.052,0.508-3.899
		c-0.848-0.847-0.676-3.222-0.508-4.068c0.338-0.679,1.695-1.015,2.882-0.679c1.354,0.338,2.71-0.844,3.049-2.538
		c0.338-1.867-0.339-3.563-1.523-3.9c-1.357,0-2.374-2.368-2.542-3.049c0-0.676,1.017-1.697,2.202-2.035
		c1.187-0.339,1.692-2.031,1.187-3.895c-0.509-1.691-2.035-2.544-3.221-2.206c-1.185,0.339-3.051-1.017-3.727-1.693
		c-0.342-0.509,0-1.863,0.847-2.708c0.847-1.017,0.507-2.716-0.847-4.069c-1.188-1.187-3.051-1.355-3.897-0.338
		c-0.85,1.015-3.392,0.677-3.897,0.338c-0.679-0.168-1.018-1.524-0.679-2.71c0.168-1.358-1.018-2.714-2.71-3.052
		c-1.866-0.338-3.392,0.338-3.728,1.693c-0.34,1.188-2.376,2.205-3.223,2.375c-0.676,0-1.525-1.017-2.033-2.205
		c-0.339-1.188-2.031-1.863-3.727-1.188c-1.693,0.507-2.713,2.038-2.375,3.223c0.339,1.186-1.017,3.217-1.524,3.558
		c-0.677,0.506-1.865,0.167-2.881-0.679c-1.014-1.016-2.88-0.507-3.896,0.679C43.09,99.538,42.922,101.399,43.767,102.248
		L43.767,102.248z"/>
	<path fill-rule="evenodd" clip-rule="evenodd" fill="#F98D29" d="M63.253,55.479L63.253,55.479
		c5.933-1.865,12.373,1.357,14.234,7.455c2.033,5.934-1.354,12.372-7.285,14.233c-6.101,2.031-12.541-1.355-14.402-7.285
		C53.766,63.78,57.152,57.342,63.253,55.479L63.253,55.479z M51.56,56.155L51.56,56.155c0.85,0.681,0.679,2.71,0.341,3.219
		c-0.17,0.506-1.185,0.847-2.201,0.679c-1.188-0.341-2.204,0.676-2.542,2.203c-0.171,1.355,0.338,2.542,1.354,2.88
		c1.021,0.339,1.864,2.032,1.864,2.54c0,0.683-0.676,1.359-1.695,1.697c-0.847,0.338-1.522,1.695-0.847,3.048
		c0.338,1.359,1.527,2.206,2.542,2.038c0.847-0.34,2.034-0.34,2.201,0.34c0.339,0.507,0.682,2.368,0,3.044
		c-0.676,0.85-0.338,2.371,0.682,3.224c1.185,1.017,2.542,1.185,3.218,0.338c0.677-0.676,2.71-0.506,3.219-0.338
		c0.511,0.17,0.849,1.356,0.511,2.372c-0.17,1.013,0.847,2.031,2.204,2.369c1.524,0.168,2.707-0.168,3.046-1.356
		c0.17-1.013,1.865-1.859,2.542-1.859c0.681,0,1.356,0.676,1.697,1.692c0.168,1.018,1.693,1.523,3.05,1.018
		c1.354-0.511,2.203-1.696,1.865-2.71c-0.172-0.847,0.847-2.378,1.354-2.885c0.34-0.339,1.355,0,2.202,0.683
		c0.848,0.677,2.205,0.509,3.222-0.683c1.017-1.183,1.185-2.54,0.341-3.219c-0.852-0.677-0.509-2.708-0.341-3.22
		c0.341-0.509,1.354-0.848,2.201-0.509c1.018,0.17,2.204-0.847,2.542-2.202c0.168-1.522-0.338-2.707-1.356-2.882
		c-1.017-0.34-1.864-2.201-1.864-2.71c0-0.677,0.679-1.354,1.696-1.693c1.017-0.168,1.356-1.691,1.017-3.052
		c-0.339-1.355-1.695-2.202-2.713-1.863c-1.014,0.338-2.539-0.846-2.88-1.184c-0.338-0.681-0.168-1.525,0.509-2.378
		c0.849-0.845,0.508-2.201-0.509-3.216c-1.185-0.847-2.542-1.185-3.218-0.341c-0.679,0.849-2.714,0.511-3.223,0.341
		c-0.506-0.168-0.845-1.185-0.506-2.202c0.169-1.021-0.848-2.206-2.204-2.544c-1.525-0.17-2.712,0.338-2.882,1.354
		c-0.336,1.022-2.202,1.869-2.71,1.869c-0.509,0-1.354-0.679-1.693-1.7c-0.341-0.846-1.698-1.354-3.051-0.846
		c-1.357,0.338-2.204,1.527-1.865,2.546c0.338,1.017-0.847,2.538-1.353,2.876c-0.509,0.343-1.525,0.168-2.206-0.509
		c-0.847-0.844-2.204-0.506-3.219,0.509C51.052,53.951,50.716,55.479,51.56,56.155L51.56,56.155z"/>
</g>
</svg>
