<?xml version="1.0" encoding="utf-8"?>
<!-- Generator: Adobe Illustrator 16.0.0, SVG Export Plug-In . SVG Version: 6.00 Build 0)  -->
<!DOCTYPE svg PUBLIC "-//W3C//DTD SVG 1.1//EN" "http://www.w3.org/Graphics/SVG/1.1/DTD/svg11.dtd">
<svg version="1.1" id="Layer_1" xmlns="http://www.w3.org/2000/svg" xmlns:xlink="http://www.w3.org/1999/xlink" x="0px" y="0px"
	 width="180px" height="180px" viewBox="0 0 180 180" enable-background="new 0 0 180 180" xml:space="preserve">
<g opacity="0.9">
	<g>
		<g>
			<circle fill="#1D4189" cx="90.283" cy="90.077" r="89.077"/>
		</g>
	</g>
	<g>
		<path fill="#FFFFFF" stroke="#FFFFFF" stroke-miterlimit="10" d="M113.741,66.778c-0.305,0-0.6,0.034-0.901,0.045
			c-4.271-10.599-14.638-18.088-26.767-18.088c-15.945,0-28.872,12.925-28.872,28.871c0,1.667,0.173,3.289,0.444,4.88
			c-8.662,0.695-15.479,7.931-15.479,16.771c0,9.304,7.537,16.842,16.841,16.842h54.733c13.619,0,24.659-11.039,24.659-24.658
			S127.36,66.778,113.741,66.778z"/>
		<g>
			<path fill="#F98D29" d="M74.483,108.442c0.594,0.592,1.552,0.592,2.145,0l11.762-11.76v35.302c0,0.838,0.676,1.517,1.514,1.517
				c0.839,0,1.518-0.679,1.518-1.517V96.683l11.759,11.76c0.594,0.592,1.554,0.592,2.146,0c0.593-0.593,0.593-1.552,0-2.145
				L90.978,91.951c-0.14-0.142-0.308-0.254-0.494-0.33c-0.185-0.076-0.381-0.117-0.58-0.117c-0.195,0-0.392,0.041-0.577,0.117
				c-0.188,0.076-0.354,0.188-0.496,0.33l-14.347,14.347C73.893,106.891,73.893,107.85,74.483,108.442z"/>
		</g>
	</g>
</g>
</svg>
