<?xml version="1.0" encoding="utf-8"?>
<!-- Generator: Adobe Illustrator 16.0.0, SVG Export Plug-In . SVG Version: 6.00 Build 0)  -->
<!DOCTYPE svg PUBLIC "-//W3C//DTD SVG 1.1//EN" "http://www.w3.org/Graphics/SVG/1.1/DTD/svg11.dtd">
<svg version="1.1" id="Layer_1" xmlns="http://www.w3.org/2000/svg" xmlns:xlink="http://www.w3.org/1999/xlink" x="0px" y="0px"
	 width="180px" height="180px" viewBox="0 0 180 180" enable-background="new 0 0 180 180" xml:space="preserve">
<g opacity="0.9">
	<g>
		<g>
			<circle fill="#1D4189" cx="91.283" cy="90.077" r="89.077"/>
		</g>
	</g>
	<g>
		<path fill="#FFFFFF" stroke="#FFFFFF" stroke-miterlimit="10" d="M57.153,145.605h65.193c3.528,0,6.392-2.864,6.392-6.392v-98.43
			c0-3.526-2.863-6.391-6.392-6.391H57.153c-3.526,0-6.391,2.864-6.391,6.391v98.43C50.763,142.741,53.627,145.605,57.153,145.605
			L57.153,145.605z M117.732,137.756c-2.122,0-3.835-1.713-3.835-3.835c0-2.121,1.713-3.834,3.835-3.834s3.835,1.713,3.835,3.834
			C121.567,136.043,119.854,137.756,117.732,137.756L117.732,137.756z M117.732,43.086c2.122,0,3.835,1.714,3.835,3.835
			c0,2.122-1.713,3.835-3.835,3.835s-3.835-1.713-3.835-3.835C113.897,44.8,115.61,43.086,117.732,43.086L117.732,43.086z
			 M89.751,45.949c16.566,0,30.002,13.435,30.002,30.001c0,16.567-13.436,30.002-30.002,30.002c-2.608,0-5.14-0.332-7.556-0.958
			l5.638-9.563c1.675-2.838-1.534-6.059-4.371-4.371l-13.077,7.708c-0.025,0.013-0.039,0.025-0.051,0.038
			C63.865,93.31,59.762,85.104,59.762,75.95C59.748,59.384,73.185,45.949,89.751,45.949L89.751,45.949z M62.536,43.086
			c2.122,0,3.835,1.714,3.835,3.835c0,2.122-1.713,3.835-3.835,3.835S58.7,49.043,58.7,46.921
			C58.7,44.8,60.414,43.086,62.536,43.086L62.536,43.086z M62.536,130.087c2.122,0,3.835,1.713,3.835,3.834
			c0,2.122-1.713,3.835-3.835,3.835s-3.836-1.713-3.836-3.835C58.7,131.812,60.414,130.087,62.536,130.087L62.536,130.087z
			 M62.536,130.087"/>
		<path fill="#F98D29" d="M97.766,75.95c0,4.426-3.589,8.015-8.015,8.015c-4.428,0-8.016-3.589-8.016-8.015s3.588-8.014,8.016-8.014
			C94.177,67.937,97.766,71.524,97.766,75.95L97.766,75.95z M97.766,75.95"/>
	</g>
</g>
</svg>
