<?xml version="1.0" encoding="utf-8"?>
<!-- Generator: Adobe Illustrator 16.0.0, SVG Export Plug-In . SVG Version: 6.00 Build 0)  -->
<!DOCTYPE svg PUBLIC "-//W3C//DTD SVG 1.1//EN" "http://www.w3.org/Graphics/SVG/1.1/DTD/svg11.dtd">
<svg version="1.1" id="Layer_1" xmlns="http://www.w3.org/2000/svg" xmlns:xlink="http://www.w3.org/1999/xlink" x="0px" y="0px"
	 width="180px" height="180px" viewBox="0 0 180 180" enable-background="new 0 0 180 180" xml:space="preserve">
<g opacity="0.9">
	<g>
		<g>
			<circle fill="#1D4189" cx="90.283" cy="90.077" r="89.077"/>
		</g>
	</g>
	<ellipse fill="#F98D29" cx="62.292" cy="62.166" rx="3.458" ry="3"/>
	<ellipse fill="#F98D29" cx="62.292" cy="84.166" rx="3.458" ry="3"/>
	<ellipse fill="#F98D29" cx="62.292" cy="105.166" rx="3.458" ry="3"/>
	<rect x="98" y="107" fill="#F98D29" width="21" height="9"/>
	<rect x="97" y="85" fill="#F98D29" width="21" height="9"/>
	<rect x="98" y="64" fill="#F98D29" width="21" height="9"/>
	<g>
		<path fill="#FFFFFF" d="M121.758,56.007H59.366c-1.997,0-3.625,1.616-3.625,3.619v12.297c0,2.003,1.628,3.613,3.625,3.613h62.392
			c1.99,0,3.619-1.61,3.619-3.613V59.626C125.377,57.623,123.748,56.007,121.758,56.007L121.758,56.007z M62.268,64.58
			c-1.235,0-2.234-0.999-2.234-2.234c0-1.229,0.999-2.228,2.234-2.228s2.227,0.999,2.227,2.228
			C64.494,63.581,63.503,64.58,62.268,64.58L62.268,64.58z M115.861,71.013h-15.766v-5.235h15.766V71.013z M115.861,71.013"/>
		<path fill="#FFFFFF" d="M121.758,77.526H59.366c-1.997,0-3.625,1.615-3.625,3.618v12.298c0,1.996,1.628,3.618,3.625,3.618h62.392
			c1.99,0,3.619-1.622,3.619-3.618V81.145C125.377,79.142,123.748,77.526,121.758,77.526L121.758,77.526z M62.268,86.101
			c-1.235,0-2.234-0.994-2.234-2.235c0-1.228,0.999-2.233,2.234-2.233s2.227,1.006,2.227,2.233
			C64.494,85.102,63.503,86.101,62.268,86.101L62.268,86.101z M115.861,92.531h-15.766V87.29h15.766V92.531z M115.861,92.531"/>
		<path fill="#FFFFFF" d="M121.758,99.045H59.366c-1.997,0-3.625,1.616-3.625,3.612v12.304c0,1.997,1.628,3.614,3.625,3.614h62.392
			c1.99,0,3.619-1.617,3.619-3.614v-12.304C125.377,100.661,123.748,99.045,121.758,99.045L121.758,99.045z M62.268,107.611
			c-1.235,0-2.234-0.992-2.234-2.228s0.999-2.233,2.234-2.233s2.227,0.998,2.227,2.233S63.503,107.611,62.268,107.611
			L62.268,107.611z M115.861,114.044h-15.766v-5.234h15.766V114.044z M115.861,114.044"/>
		<g>
			<defs>
				<rect id="SVGID_5_" x="29.193" y="17.374" width="122.667" height="127.778"/>
			</defs>
			<clipPath id="SVGID_2_">
				<use xlink:href="#SVGID_5_"  overflow="visible"/>
			</clipPath>
			<path clip-path="url(#SVGID_2_)" fill="#FFFFFF" d="M101.337,130.341h-6.651v-9.671h-8.248v9.671H79.78v2.552H56.502v8.254H79.78
				v2.552h21.557v-2.552h23.272v-8.254h-23.272V130.341z M101.337,130.341"/>
		</g>
	</g>
</g>
</svg>
