<?xml version="1.0" encoding="utf-8"?>
<!-- Generator: Adobe Illustrator 16.0.0, SVG Export Plug-In . SVG Version: 6.00 Build 0)  -->
<!DOCTYPE svg PUBLIC "-//W3C//DTD SVG 1.1//EN" "http://www.w3.org/Graphics/SVG/1.1/DTD/svg11.dtd">
<svg version="1.1" id="Layer_1" xmlns="http://www.w3.org/2000/svg" xmlns:xlink="http://www.w3.org/1999/xlink" x="0px" y="0px"
	 width="180px" height="180px" viewBox="0 0 180 180" enable-background="new 0 0 180 180" xml:space="preserve">
<g opacity="0.9">
	<g>
		<g>
			<circle fill="#1D4189" cx="90.283" cy="90.077" r="89.077"/>
		</g>
	</g>
	<g>
		<g>
			<path fill="#FFFFFF" d="M88.759,88.189c-14.607-3.959-26.032-4.083-40.398,0.364c0-13.466,0-26.933,0-40.398
				c14.364-4.448,25.792-4.322,40.398-0.365C88.759,61.257,88.759,74.723,88.759,88.189z"/>
			<path fill="#F98D29" d="M88.759,131.637c-14.61-3.954-26.029-4.084-40.398,0.364c0-13.467,0-26.933,0-40.399
				c14.366-4.45,25.79-4.321,40.398-0.363C88.759,104.704,88.759,118.171,88.759,131.637z"/>
			<path fill="#FFFFFF" d="M132.206,132.001c-14.369,4.448-25.785,4.316-40.396,0.366c0-13.467,0-26.933,0-40.399
				c14.609,3.954,26.028,4.083,40.396-0.366C132.206,105.068,132.206,118.534,132.206,132.001z"/>
			<path fill="#FFFFFF" d="M132.206,88.554C117.842,93,106.415,92.88,91.81,88.92c0-13.467,0-26.935,0-40.401
				c14.609,3.956,26.028,4.085,40.396-0.363C132.206,61.621,132.206,75.088,132.206,88.554z"/>
		</g>
	</g>
</g>
</svg>
