<?xml version="1.0" encoding="utf-8"?>
<!-- Generator: Adobe Illustrator 16.0.0, SVG Export Plug-In . SVG Version: 6.00 Build 0)  -->
<!DOCTYPE svg PUBLIC "-//W3C//DTD SVG 1.1//EN" "http://www.w3.org/Graphics/SVG/1.1/DTD/svg11.dtd">
<svg version="1.1" id="Layer_1" xmlns="http://www.w3.org/2000/svg" xmlns:xlink="http://www.w3.org/1999/xlink" x="0px" y="0px"
	 width="180px" height="180px" viewBox="0 0 180 180" enable-background="new 0 0 180 180" xml:space="preserve">
<g opacity="0.9">
	<g>
		<circle fill="#1D4189" cx="89.283" cy="90.077" r="89.077"/>
	</g>
	<g>
		<path fill="#F98D29" d="M45.798,116.607c0,3.093,2.518,5.61,5.61,5.61h8.604v-22.116c0-1.5,1.216-2.715,2.716-2.715h52.383
			c1.5,0,2.715,1.215,2.715,2.715v22.116h8.604c3.095,0,5.611-2.518,5.611-5.61V94.65H45.798V116.607z M45.798,116.607"/>
		<path fill="#FFFFFF" d="M126.429,76.382h-9.128V47.667c0-1.5-1.215-2.715-2.714-2.715H63.252c-1.501,0-2.716,1.215-2.716,2.715
			v28.715h-9.128c-6.087,0-11.039,4.951-11.039,11.04v29.186c0,6.086,4.952,11.04,11.039,11.04h8.604v6.842
			c0,1.498,1.216,2.714,2.716,2.714h52.383c1.5,0,2.715-1.216,2.715-2.714v-6.844h8.604c6.089,0,11.04-4.952,11.04-11.038V87.422
			C137.467,81.333,132.518,76.382,126.429,76.382L126.429,76.382z M132.04,116.607c0,3.093-2.518,5.61-5.611,5.61h-8.604v-22.116
			c0-1.5-1.215-2.715-2.715-2.715H62.728c-1.5,0-2.716,1.215-2.716,2.715v22.116h-8.604c-3.093,0-5.61-2.518-5.61-5.61V94.65h86.242
			V116.607z M65.965,50.381h45.907v26.001H65.965V50.381z M45.798,87.422c0-3.094,2.518-5.611,5.61-5.611h75.021
			c3.095,0,5.611,2.518,5.611,5.611v1.8H45.798V87.422z M112.396,131.775H65.44v-28.96h46.955V131.775z M112.396,131.775"/>
		<path fill="#F98D29" d="M125.336,82.802c-0.715,0-1.413,0.289-1.919,0.796c-0.506,0.505-0.795,1.204-0.795,1.919
			c0,0.714,0.289,1.414,0.795,1.921c0.506,0.503,1.204,0.792,1.919,0.792c0.713,0,1.414-0.289,1.918-0.792
			c0.507-0.507,0.796-1.207,0.796-1.921c0-0.715-0.289-1.414-0.796-1.919C126.75,83.091,126.049,82.802,125.336,82.802
			L125.336,82.802z M125.336,82.802"/>
		<path fill="#F98D29" d="M72.487,114.21h31.783c1.5,0,2.715-1.215,2.715-2.716c0-1.498-1.215-2.713-2.715-2.713H72.487
			c-1.497,0-2.713,1.215-2.713,2.713C69.774,112.995,70.99,114.21,72.487,114.21L72.487,114.21z M72.487,114.21"/>
		<path fill="#F98D29" d="M72.487,125.809h14.848c1.499,0,2.714-1.215,2.714-2.714c0-1.5-1.215-2.715-2.714-2.715H72.487
			c-1.497,0-2.713,1.215-2.713,2.715C69.774,124.594,70.99,125.809,72.487,125.809L72.487,125.809z M72.487,125.809"/>
	</g>
</g>
</svg>
