<?xml version="1.0" encoding="utf-8"?>
<!-- Generator: Adobe Illustrator 16.0.0, SVG Export Plug-In . SVG Version: 6.00 Build 0)  -->
<!DOCTYPE svg PUBLIC "-//W3C//DTD SVG 1.1//EN" "http://www.w3.org/Graphics/SVG/1.1/DTD/svg11.dtd">
<svg version="1.1" id="Layer_1" xmlns="http://www.w3.org/2000/svg" xmlns:xlink="http://www.w3.org/1999/xlink" x="0px" y="0px"
	 width="180px" height="180px" viewBox="0 0 180 180" enable-background="new 0 0 180 180" xml:space="preserve">
<g opacity="0.9">
	<g>
		<g>
			<g>
				<circle fill="#1D4189" cx="90.283" cy="90.077" r="89.077"/>
			</g>
		</g>
	</g>
	<g>
		<path fill="#FFFFFF" d="M80.695,93.534c0,0-4.915,3.502-14.911,6.689c0,0-4.851,1.329-9.451,3.206
			c-2.202,0.898-4.061,2.48-5.277,4.524c-1.187,1.992-2.46,4.967-3.215,9.229c0,0-1.771,7.398-1.377,18.692
			c0,0,8.401,8.008,44.348,8.775l-0.146-45.894L80.695,93.534z"/>
		<polygon fill="#FFFFFF" points="93.528,133.318 90.832,139.378 80.542,98.768 102.185,98.768 		"/>
		<path fill="#FFFFFF" d="M100.339,85.644c-0.078,0.354,0.294,10.448,0.294,10.448l-6.927,7.162l-12.474-7.516l0.531-10.095H100.339
			z"/>
		<path fill="#FFFFFF" d="M100.56,94.032l-18.911-6.196l0.115-2.192h0.234c9.554,0.301,13.149,0.39,18.136,0h0.205
			C100.283,85.896,100.454,91.06,100.56,94.032z"/>
		<path fill="#FFFFFF" d="M100.951,93.534c0,0,4.915,3.502,14.911,6.689c0,0,4.85,1.329,9.451,3.206
			c2.202,0.898,4.061,2.48,5.277,4.524c1.188,1.992,2.459,4.967,3.215,9.229c0,0,1.771,7.398,1.377,18.692
			c0,0-8.401,8.008-44.349,8.775l0.147-45.894L100.951,93.534z"/>
		<polygon fill="#FFFFFF" points="88.118,133.318 90.814,139.378 101.104,98.768 79.461,98.768 		"/>
		<g>
			<path fill="#F98D29" d="M93.232,102.941c-0.097,0.188-0.507,0.328-0.925,0.328h-2.771c-0.418,0-0.828-0.141-0.925-0.328
				l-1.586-3.084c-0.309-0.6,0.113-1.161,0.989-1.161h5.814c0.876,0,1.298,0.562,0.988,1.161L93.232,102.941z"/>
			<polygon fill="#F98D29" points="95.345,132.012 90.95,139.378 86.435,132.681 87.01,124.749 88.596,102.878 93.232,102.878 
				94.873,125.499 			"/>
		</g>
		<polygon fill="#FFFFFF" points="100.524,93.278 97.976,104.831 90.764,98.696 		"/>
		<polygon fill="#FFFFFF" points="81.122,93.278 83.67,104.831 90.882,98.696 		"/>
		<polygon fill="#FFFFFF" points="100.524,93.278 106.197,96.446 108.072,107.047 103.645,109.881 107.254,111.831 90.834,144.651 
			90.834,137.214 		"/>
		<polygon fill="#FFFFFF" points="81.122,93.278 75.448,96.446 73.573,107.047 78.002,109.881 74.392,111.831 90.812,144.651 
			90.812,137.214 		"/>
		<path fill="#FFFFFF" d="M72.923,63.89c0.09,2.616-0.444,4.897-1.796,4.943c-1.351,0.047-2.331-2.042-2.421-4.658
			s0.947-4.775,2.299-4.822C72.356,59.307,72.832,61.274,72.923,63.89z"/>
		<path fill="#FFFFFF" d="M108.112,63.364c-0.091,2.616,0.443,4.897,1.796,4.943c1.352,0.047,2.33-2.043,2.421-4.658
			c0.091-2.616-0.947-4.775-2.299-4.822C108.679,58.781,108.203,60.749,108.112,63.364z"/>
		<ellipse fill="#FFFFFF" cx="90.813" cy="64.457" rx="18.368" ry="26.089"/>
		<path fill="#FFFFFF" d="M90.978,38.369v52.177c-10.174,0.095-18.532-11.396-18.532-25.742
			C72.445,50.149,80.178,38.622,90.978,38.369z"/>
		<path fill="#FFFFFF" d="M73.405,72.805c0,0-4.201-15.649,4.798-23.486c0,0,6.708,5.402,14.87,3.503c0,0,2.696-0.578,5.947-2.616
			c0,0,6.373-2.703,8.467,3.54c2.23,6.651,1.096,13.416,1.232,17.46c0,0,2.98-6.739,3.076-16.993c0,0,0.483,1.813,0.673,4.052
			c0,0,1.122-7.822-0.909-12.429c0,0-1.49-4.935-7.18-7.466c0,0-3.367-5.377-16.798-4.299c0,0-0.221-0.919,1.856-1.763
			c0,0-10.354-0.661-12.697,6.378c0,0-8.383,1.837-7.601,16.416l0.885-2.724C70.025,52.378,68.394,66.102,73.405,72.805z"/>
		<path fill="#F98D29" d="M113.856,63.052c0,0,4.023,4.395,0.707,11.526c0,0-4.485,9.019-20.036,9.526V82.58
			c0,0,23.015-0.41,19.182-16.835L113.856,63.052z"/>
		<path fill="#F98D29" d="M94.489,85.269h-7.389c-1.118,0-2.033-0.914-2.033-2.033l0,0c0-1.118,0.915-2.033,2.033-2.033h7.389
			c1.118,0,2.033,0.915,2.033,2.033l0,0C96.522,84.354,95.607,85.269,94.489,85.269z"/>
		<path fill="#F98D29" d="M112.173,69.372h-0.549c-1.034,0-1.881-0.846-1.881-1.88v-5.809c0-1.033,0.847-1.879,1.881-1.879h0.549
			c1.034,0,1.881,0.846,1.881,1.879v5.809C114.054,68.526,113.207,69.372,112.173,69.372z"/>
	</g>
</g>
</svg>
