<?xml version="1.0" encoding="utf-8"?>
<!-- Generator: Adobe Illustrator 16.0.0, SVG Export Plug-In . SVG Version: 6.00 Build 0)  -->
<!DOCTYPE svg PUBLIC "-//W3C//DTD SVG 1.1//EN" "http://www.w3.org/Graphics/SVG/1.1/DTD/svg11.dtd">
<svg version="1.1" id="Layer_1" xmlns="http://www.w3.org/2000/svg" xmlns:xlink="http://www.w3.org/1999/xlink" x="0px" y="0px"
	 width="180px" height="180px" viewBox="0 0 180 180" enable-background="new 0 0 180 180" xml:space="preserve">
<g opacity="0.9">
	<g>
		<g>
			<circle fill="#1D4189" cx="90.283" cy="90.077" r="89.077"/>
		</g>
	</g>
	<g>
		<path fill="none" stroke="#F98D29" stroke-width="3" stroke-miterlimit="10" d="M106.628,118.714
			c-4.256-4.258-10.136-6.891-16.631-6.892s-12.375,2.631-16.631,6.888l16.629,16.633L106.628,118.714z"/>
		<path fill="none" stroke="#FFFFFF" stroke-width="3" stroke-linecap="round" stroke-linejoin="round" stroke-miterlimit="10" d="
			M89.999,96.143c10.809,0.001,20.609,4.397,27.707,11.497l11.082-11.082c-9.937-9.938-23.654-16.093-38.787-16.095
			c-15.131-0.002-28.853,6.15-38.791,16.086l11.08,11.085C69.39,100.536,79.19,96.142,89.999,96.143z"/>
		<path fill="none" stroke="#FFFFFF" stroke-width="3" stroke-linecap="round" stroke-linejoin="round" stroke-miterlimit="10" d="
			M90.003,66.088c19.094,0.002,36.405,7.771,48.945,20.315l11.083-11.083c-15.379-15.382-36.61-24.909-60.026-24.912
			s-44.651,9.521-60.032,24.898l11.081,11.085C53.596,73.852,70.909,66.086,90.003,66.088z"/>
	</g>
</g>
</svg>
